<?xml version="1.0" standalone="no"?>
<!DOCTYPE svg PUBLIC "-//W3C//DTD SVG 20010904//EN"
 "http://www.w3.org/TR/2001/REC-SVG-20010904/DTD/svg10.dtd">
<svg version="1.0" xmlns="http://www.w3.org/2000/svg"
 width="1080.000000pt" height="1080.000000pt" viewBox="0 0 1080.000000 1080.000000"
 preserveAspectRatio="xMidYMid meet">
<metadata>
Created by potrace 1.14, written by Peter Selinger 2001-2017
</metadata>
<g transform="translate(0.000000,1080.000000) scale(0.100000,-0.100000)"
fill="#000000" stroke="none">
<path d="M4980 10789 c-822 -71 -1571 -302 -2265 -700 -1050 -601 -1880 -1551
-2327 -2664 -182 -452 -296 -906 -359 -1424 -26 -214 -37 -754 -20 -981 113
-1488 799 -2826 1933 -3772 814 -680 1766 -1087 2857 -1219 214 -26 754 -37
981 -20 1488 113 2826 799 3772 1933 680 814 1087 1766 1219 2857 26 214 37
754 20 981 -113 1488 -799 2826 -1933 3772 -738 616 -1607 1015 -2567 1178
-297 50 -439 61 -831 65 -206 2 -422 -1 -480 -6z m-395 -3019 c506 -506 923
-920 926 -920 3 0 9 397 13 883 4 485 9 883 10 884 1 2 590 0 1309 -4 l1307
-6 0 -2114 0 -2113 -218 223 c-120 122 -237 243 -260 268 l-42 46 0 1592 0
1591 -800 0 -800 0 0 -887 0 -888 253 -255 254 -255 47 -399 c25 -219 45 -400
43 -402 -1 -2 -831 825 -1842 1836 l-1840 1840 360 0 360 0 920 -920z m-1415
-3492 l0 -1588 825 0 825 0 0 892 0 893 -250 250 -249 250 -46 385 c-25 212
-47 399 -50 415 -4 24 361 -337 1840 -1815 l1845 -1845 -42 -7 c-24 -3 -185
-7 -358 -7 l-315 -1 -927 927 -928 928 0 -893 0 -892 -1345 0 -1345 0 0 2113
1 2112 259 -265 259 -265 1 -1587z"/>
</g>
</svg>
